<svg width="1440" height="927" viewBox="0 0 1440 927" fill="none" xmlns="http://www.w3.org/2000/svg">
<rect x="1" y="232.5" width="1440" height="738" fill="#4393C3"/>
<ellipse cx="673" cy="315.5" rx="603" ry="143" fill="#4393C3"/>
<path fill-rule="evenodd" clip-rule="evenodd" d="M45.7614 167.982C19.889 241.32 -44 206.986 -44 206.986V241.989V337.498C34.1452 241.989 231.092 292.994 231.092 292.994C344.614 313.496 452.856 231.488 452.856 231.488C602.81 118.477 769.133 278.493 769.133 278.493C828.27 337.498 909.583 231.488 909.583 231.488C1034.19 110.977 1183.09 323.997 1183.09 323.997C1207.38 357.5 1252.79 337.498 1252.79 337.498C1363.14 295.994 1483 357.5 1483 357.5V206.986C1393.24 119.978 1352.05 167.982 1352.05 167.982C1255.96 256.49 1118.15 94.4751 1118.15 94.4751C1038.42 -7.53451 957.632 49.9709 957.632 49.9709C911.167 84.9742 876.846 34.9696 876.846 34.9696C796.061 -50.5386 706.3 49.9709 706.3 49.9709C617.066 126.478 532.057 79.4738 532.057 79.4738L465.528 41.9702C302.373 -42.5378 321.91 62.9721 321.91 62.9721C341.974 141.48 246.933 69.9728 246.933 69.9728C117.571 -23.536 45.7614 167.982 45.7614 167.982Z" fill="white" stroke="white"/>
<path d="M211.968 92.8585C124.659 30.9064 92.1504 137.464 92.1504 137.464C92.1504 137.464 75.8961 177.526 117.229 161.832C117.229 161.832 165.992 146.137 155.775 187.439C155.775 187.439 138.591 244.847 211.968 206.024C211.968 206.024 244.54 188.265 249.585 155.224C254.631 122.182 211.968 92.8585 211.968 92.8585Z" fill="#4393C3" stroke="white"/>
<path d="M128.716 203.354C149.023 166.782 91.5841 176.7 72.4379 203.354C53.2916 230.008 3.97563 246.744 -11.6895 243.645C-27.3546 240.545 -55.2036 258.521 -11.6895 278.357C-11.6895 278.357 27.1832 298.192 42.8483 266.579C42.8483 266.579 50.9709 253.562 72.4379 248.603C93.9049 243.645 108.41 239.925 128.716 203.354Z" fill="#4393C3" stroke="white"/>
<path d="M220.763 277.5C199.776 277.5 100.364 265.291 102.02 246.655C103.677 228.02 143.442 236.374 168.847 236.374C194.253 236.374 223.524 195.248 262.184 220.951C300.844 246.655 271.021 267.218 271.021 267.218C271.021 267.218 241.75 277.5 220.763 277.5Z" fill="#4393C3" stroke="white"/>
<path d="M269.751 191.884C249.01 153.745 260.122 131.831 274.55 123.355C288.978 114.878 312.902 110.449 325.586 125.506C338.27 140.564 357.324 141.269 363.576 160.863C369.828 180.458 354.966 208.213 338.974 216.092C322.983 223.971 290.492 230.024 269.751 191.884Z" fill="#4393C3" stroke="white"/>
<path d="M320.465 244.302C320.465 244.302 361.641 216.143 374.102 201.522C386.563 186.901 393.065 162.533 393.065 142.497C393.065 122.46 434.783 134.374 452.12 142.497C469.458 150.619 472.708 163.616 461.331 195.024C449.953 226.432 425.031 244.302 393.065 244.302C361.099 244.302 337.26 280.584 320.465 270.837C303.669 261.09 320.465 244.302 320.465 244.302Z" fill="#4393C3" stroke="white"/>
<path d="M341.371 117.647C334.878 100.713 341.371 43.8639 365.179 34.1875C388.988 24.511 437.687 34.1875 451.755 59.5881C465.824 84.9888 479.892 128.533 451.755 117.647C423.618 106.761 379.248 122.43 365.179 134.581C351.111 146.731 347.864 134.581 341.371 117.647Z" fill="#4393C3" stroke="white"/>
<path d="M482.379 165.752C482.379 155.713 471.21 107.525 497.271 97.4853C523.332 87.446 541.947 93.4696 554.357 107.525C566.767 121.58 581.66 143.666 566.767 159.729C551.875 175.791 535.742 182.819 512.163 186.835C488.584 190.85 482.379 175.791 482.379 165.752Z" fill="#4393C3" stroke="white"/>
<path d="M714.034 131.246C692.043 136.347 569.097 139.407 573.095 131.246C577.094 123.086 690.044 109.826 702.039 100.646C714.034 91.4653 722.03 46.584 736.024 60.8644C750.018 75.1448 736.024 126.146 714.034 131.246Z" fill="#4393C3"/>
<path d="M594.086 149.607C586.09 149.607 582.091 156.747 588.089 163.887C594.086 171.027 607.08 184.288 624.073 190.408C641.066 196.528 672.052 202.648 679.049 196.528C686.046 190.408 684.047 175.108 679.049 160.827C674.051 146.547 602.083 149.607 594.086 149.607Z" fill="#4393C3"/>
<path d="M760.013 54.7443C766.011 48.6241 769.009 48.6241 782.004 42.5039C794.998 36.3838 786.002 26.1835 803.994 23.1234C821.986 20.0633 848.975 28.2235 853.972 48.6241C858.97 69.0247 833.981 141.447 815.989 141.447C797.997 141.447 768.01 131.246 760.013 117.986C752.017 104.726 754.016 60.8644 760.013 54.7443Z" fill="#4393C3"/>
<path d="M714.034 163.887C720.031 151.647 724.029 141.447 742.021 141.447C760.013 141.447 799.996 143.487 794.998 163.887C790 184.288 769.009 183.268 768.01 204.688C767.01 226.109 775.007 247.53 760.013 247.53C745.02 247.53 724.029 225.089 714.034 212.849C704.038 200.608 708.036 176.128 714.034 163.887Z" fill="#4393C3"/>
<path d="M870.965 75.1448C882.96 69.0247 926.94 75.1448 936.936 91.4653C946.932 107.786 958.926 132.266 949.93 168.987C940.934 205.708 900.952 216.929 900.952 216.929C900.952 216.929 877.962 228.149 878.961 204.688C879.961 181.228 890.956 188.368 903.95 176.128C916.945 163.887 914.946 149.607 903.95 141.447C892.955 133.286 857.971 136.347 853.972 117.986C849.974 99.6255 858.97 81.265 870.965 75.1448Z" fill="#4393C3"/>
<path d="M803.994 190.408C815.989 176.128 829.37 169.212 848.975 163.887C861.85 160.39 886.958 145.527 882.96 160.827C878.961 176.128 842.977 247.53 842.977 247.53C842.977 247.53 821.986 281.191 803.994 277.11C786.002 273.03 794.998 255.69 794.998 238.349C794.998 221.009 791.999 204.688 803.994 190.408Z" fill="#4393C3"/>
<path d="M958.926 75.1448C968.922 54.7443 1005.91 53.7242 1025.9 60.8644C1045.89 68.0046 1160.84 153.687 1154.84 163.887C1148.84 174.088 1120.86 168.987 1100.86 163.887C1080.87 158.787 1074.88 124.106 1050.89 117.986C1026.9 111.866 1000.91 123.086 986.914 117.986C972.92 112.886 948.931 95.5454 958.926 75.1448Z" fill="#4393C3"/>
<path d="M1186.83 299.551C1190.82 283.231 1214.81 256.71 1230.81 247.53C1246.8 238.349 1265.79 243.449 1282.78 256.71C1299.78 269.97 1299.78 288.331 1293.78 299.551C1287.78 310.771 1241.8 339.332 1217.81 336.272C1193.82 333.212 1182.83 315.871 1186.83 299.551Z" fill="#4393C3"/>
<path d="M1258.8 230.189C1243.8 230.189 1233.81 221.009 1240.8 216.929C1247.8 212.849 1313.77 221.009 1331.76 216.929C1349.76 212.849 1361.75 184.288 1378.74 184.288C1395.74 184.288 1418.73 176.39 1418.73 190.408C1418.73 204.426 1399.73 247.53 1364.75 256.71C1329.76 265.89 1273.79 230.189 1258.8 230.189Z" fill="#4393C3"/>
<path d="M1316.77 310.771C1301.78 299.551 1311.77 284.251 1325.77 277.11C1339.76 269.97 1345.76 277.11 1364.75 277.11C1383.74 277.11 1397.73 238.349 1418.73 247.53C1439.72 256.71 1443.71 299.551 1418.73 315.871C1393.74 332.192 1331.76 321.992 1316.77 310.771Z" fill="#4393C3"/>
<path d="M1033.89 141.447C1033.89 141.447 994.911 122.066 980.917 141.447C966.923 160.827 989.913 172.048 1007.9 184.288C1025.9 196.528 1075.88 190.408 1082.87 176.128C1089.87 161.847 1033.89 141.447 1033.89 141.447Z" fill="#4393C3"/>
<path d="M1177.83 262.83C1161.84 264.87 1143.85 256.71 1143.85 256.71C1143.85 256.71 1082.87 230.189 1088.87 204.688C1094.87 179.188 1127.85 204.426 1154.84 204.426C1181.83 204.426 1207.82 186.066 1212.82 204.426C1217.81 222.787 1193.82 260.79 1177.83 262.83Z" fill="#4393C3"/>
<path d="M714.034 131.246C692.043 136.347 569.097 139.407 573.095 131.246C577.094 123.086 690.044 109.826 702.039 100.646C714.034 91.4653 722.03 46.584 736.024 60.8644C750.018 75.1448 736.024 126.146 714.034 131.246Z" stroke="white"/>
<path d="M594.086 149.607C586.09 149.607 582.091 156.747 588.089 163.887C594.086 171.027 607.08 184.288 624.073 190.408C641.066 196.528 672.052 202.648 679.049 196.528C686.046 190.408 684.047 175.108 679.049 160.827C674.051 146.547 602.083 149.607 594.086 149.607Z" stroke="white"/>
<path d="M760.013 54.7443C766.011 48.6241 769.009 48.6241 782.004 42.5039C794.998 36.3838 786.002 26.1835 803.994 23.1234C821.986 20.0633 848.975 28.2235 853.972 48.6241C858.97 69.0247 833.981 141.447 815.989 141.447C797.997 141.447 768.01 131.246 760.013 117.986C752.017 104.726 754.016 60.8644 760.013 54.7443Z" stroke="white"/>
<path d="M714.034 163.887C720.031 151.647 724.029 141.447 742.021 141.447C760.013 141.447 799.996 143.487 794.998 163.887C790 184.288 769.009 183.268 768.01 204.688C767.01 226.109 775.007 247.53 760.013 247.53C745.02 247.53 724.029 225.089 714.034 212.849C704.038 200.608 708.036 176.128 714.034 163.887Z" stroke="white"/>
<path d="M870.965 75.1448C882.96 69.0247 926.94 75.1448 936.936 91.4653C946.932 107.786 958.926 132.266 949.93 168.987C940.934 205.708 900.952 216.929 900.952 216.929C900.952 216.929 877.962 228.149 878.961 204.688C879.961 181.228 890.956 188.368 903.95 176.128C916.945 163.887 914.946 149.607 903.95 141.447C892.955 133.286 857.971 136.347 853.972 117.986C849.974 99.6255 858.97 81.265 870.965 75.1448Z" stroke="white"/>
<path d="M803.994 190.408C815.989 176.128 829.37 169.212 848.975 163.887C861.85 160.39 886.958 145.527 882.96 160.827C878.961 176.128 842.977 247.53 842.977 247.53C842.977 247.53 821.986 281.191 803.994 277.11C786.002 273.03 794.998 255.69 794.998 238.349C794.998 221.009 791.999 204.688 803.994 190.408Z" stroke="white"/>
<path d="M958.926 75.1448C968.922 54.7443 1005.91 53.7242 1025.9 60.8644C1045.89 68.0046 1160.84 153.687 1154.84 163.887C1148.84 174.088 1120.86 168.987 1100.86 163.887C1080.87 158.787 1074.88 124.106 1050.89 117.986C1026.9 111.866 1000.91 123.086 986.914 117.986C972.92 112.886 948.931 95.5454 958.926 75.1448Z" stroke="white"/>
<path d="M1186.83 299.551C1190.82 283.231 1214.81 256.71 1230.81 247.53C1246.8 238.349 1265.79 243.449 1282.78 256.71C1299.78 269.97 1299.78 288.331 1293.78 299.551C1287.78 310.771 1241.8 339.332 1217.81 336.272C1193.82 333.212 1182.83 315.871 1186.83 299.551Z" stroke="white"/>
<path d="M1258.8 230.189C1243.8 230.189 1233.81 221.009 1240.8 216.929C1247.8 212.849 1313.77 221.009 1331.76 216.929C1349.76 212.849 1361.75 184.288 1378.74 184.288C1395.74 184.288 1418.73 176.39 1418.73 190.408C1418.73 204.426 1399.73 247.53 1364.75 256.71C1329.76 265.89 1273.79 230.189 1258.8 230.189Z" stroke="white"/>
<path d="M1316.77 310.771C1301.78 299.551 1311.77 284.251 1325.77 277.11C1339.76 269.97 1345.76 277.11 1364.75 277.11C1383.74 277.11 1397.73 238.349 1418.73 247.53C1439.72 256.71 1443.71 299.551 1418.73 315.871C1393.74 332.192 1331.76 321.992 1316.77 310.771Z" stroke="white"/>
<path d="M1033.89 141.447C1033.89 141.447 994.911 122.066 980.917 141.447C966.923 160.827 989.913 172.048 1007.9 184.288C1025.9 196.528 1075.88 190.408 1082.87 176.128C1089.87 161.847 1033.89 141.447 1033.89 141.447Z" stroke="white"/>
<path d="M1177.83 262.83C1161.84 264.87 1143.85 256.71 1143.85 256.71C1143.85 256.71 1082.87 230.189 1088.87 204.688C1094.87 179.188 1127.85 204.426 1154.84 204.426C1181.83 204.426 1207.82 186.066 1212.82 204.426C1217.81 222.787 1193.82 260.79 1177.83 262.83Z" stroke="white"/>
<path fill-rule="evenodd" clip-rule="evenodd" d="M45.7614 167.982C19.889 241.32 -44 206.986 -44 206.986V241.989V337.498C34.1452 241.989 231.092 292.994 231.092 292.994C344.614 313.496 452.856 231.488 452.856 231.488C602.81 118.477 769.133 278.493 769.133 278.493C828.27 337.498 909.583 231.488 909.583 231.488C1034.19 110.977 1183.09 323.997 1183.09 323.997C1207.38 357.5 1252.79 337.498 1252.79 337.498C1363.14 295.994 1483 357.5 1483 357.5V206.986C1393.24 119.978 1352.05 167.982 1352.05 167.982C1255.96 256.49 1118.15 94.4751 1118.15 94.4751C1038.42 -7.53451 957.632 49.9709 957.632 49.9709C911.167 84.9742 876.846 34.9696 876.846 34.9696C796.061 -50.5386 706.3 49.9709 706.3 49.9709C617.066 126.478 532.057 79.4738 532.057 79.4738L465.528 41.9702C302.373 -42.5378 321.91 62.9721 321.91 62.9721C341.974 141.48 246.933 69.9728 246.933 69.9728C117.571 -23.536 45.7614 167.982 45.7614 167.982Z" fill="white" stroke="white"/>
<path d="M211.968 92.8585C124.659 30.9064 92.1504 137.464 92.1504 137.464C92.1504 137.464 75.8961 177.526 117.229 161.832C117.229 161.832 165.992 146.137 155.775 187.439C155.775 187.439 138.591 244.847 211.968 206.024C211.968 206.024 244.54 188.265 249.585 155.224C254.631 122.182 211.968 92.8585 211.968 92.8585Z" fill="#4393C3" stroke="white"/>
<path d="M128.716 203.354C149.023 166.782 91.5841 176.7 72.4379 203.354C53.2916 230.008 3.97563 246.744 -11.6895 243.645C-27.3546 240.545 -55.2036 258.521 -11.6895 278.357C-11.6895 278.357 27.1832 298.192 42.8483 266.579C42.8483 266.579 50.9709 253.562 72.4379 248.603C93.9049 243.645 108.41 239.925 128.716 203.354Z" fill="#4393C3" stroke="white"/>
<path d="M220.763 277.5C199.776 277.5 100.364 265.291 102.02 246.655C103.677 228.02 143.442 236.374 168.847 236.374C194.253 236.374 223.524 195.248 262.184 220.951C300.844 246.655 271.021 267.218 271.021 267.218C271.021 267.218 241.75 277.5 220.763 277.5Z" fill="#4393C3" stroke="white"/>
<path d="M269.751 191.884C249.01 153.745 260.122 131.831 274.55 123.355C288.978 114.878 312.902 110.449 325.586 125.506C338.27 140.564 357.324 141.269 363.576 160.863C369.828 180.458 354.966 208.213 338.974 216.092C322.983 223.971 290.492 230.024 269.751 191.884Z" fill="#4393C3" stroke="white"/>
<path d="M320.465 244.302C320.465 244.302 361.641 216.143 374.102 201.522C386.563 186.901 393.065 162.533 393.065 142.497C393.065 122.46 434.783 134.374 452.12 142.497C469.458 150.619 472.708 163.616 461.331 195.024C449.953 226.432 425.031 244.302 393.065 244.302C361.099 244.302 337.26 280.584 320.465 270.837C303.669 261.09 320.465 244.302 320.465 244.302Z" fill="#4393C3" stroke="white"/>
<path d="M341.371 117.647C334.878 100.713 341.371 43.8639 365.179 34.1875C388.988 24.511 437.687 34.1875 451.755 59.5881C465.824 84.9888 479.892 128.533 451.755 117.647C423.618 106.761 379.248 122.43 365.179 134.581C351.111 146.731 347.864 134.581 341.371 117.647Z" fill="#4393C3" stroke="white"/>
<path d="M482.379 165.752C482.379 155.713 471.21 107.525 497.271 97.4853C523.332 87.446 541.947 93.4696 554.357 107.525C566.767 121.58 581.66 143.666 566.767 159.729C551.875 175.791 535.742 182.819 512.163 186.835C488.584 190.85 482.379 175.791 482.379 165.752Z" fill="#4393C3" stroke="white"/>
<path d="M714.034 131.246C692.043 136.347 569.097 139.407 573.095 131.246C577.094 123.086 690.044 109.826 702.039 100.646C714.034 91.4653 722.03 46.584 736.024 60.8644C750.018 75.1448 736.024 126.146 714.034 131.246Z" fill="#4393C3"/>
<path d="M594.086 149.607C586.09 149.607 582.091 156.747 588.089 163.887C594.086 171.027 607.08 184.288 624.073 190.408C641.066 196.528 672.052 202.648 679.049 196.528C686.046 190.408 684.047 175.108 679.049 160.827C674.051 146.547 602.083 149.607 594.086 149.607Z" fill="#4393C3"/>
<path d="M760.013 54.7443C766.011 48.6241 769.009 48.6241 782.004 42.5039C794.998 36.3838 786.002 26.1835 803.994 23.1234C821.986 20.0633 848.975 28.2235 853.972 48.6241C858.97 69.0247 833.981 141.447 815.989 141.447C797.997 141.447 768.01 131.246 760.013 117.986C752.017 104.726 754.016 60.8644 760.013 54.7443Z" fill="#4393C3"/>
<path d="M714.034 163.887C720.031 151.647 724.029 141.447 742.021 141.447C760.013 141.447 799.996 143.487 794.998 163.887C790 184.288 769.009 183.268 768.01 204.688C767.01 226.109 775.007 247.53 760.013 247.53C745.02 247.53 724.029 225.089 714.034 212.849C704.038 200.608 708.036 176.128 714.034 163.887Z" fill="#4393C3"/>
<path d="M870.965 75.1448C882.96 69.0247 926.94 75.1448 936.936 91.4653C946.932 107.786 958.926 132.266 949.93 168.987C940.934 205.708 900.952 216.929 900.952 216.929C900.952 216.929 877.962 228.149 878.961 204.688C879.961 181.228 890.956 188.368 903.95 176.128C916.945 163.887 914.946 149.607 903.95 141.447C892.955 133.286 857.971 136.347 853.972 117.986C849.974 99.6255 858.97 81.265 870.965 75.1448Z" fill="#4393C3"/>
<path d="M803.994 190.408C815.989 176.128 829.37 169.212 848.975 163.887C861.85 160.39 886.958 145.527 882.96 160.827C878.961 176.128 842.977 247.53 842.977 247.53C842.977 247.53 821.986 281.191 803.994 277.11C786.002 273.03 794.998 255.69 794.998 238.349C794.998 221.009 791.999 204.688 803.994 190.408Z" fill="#4393C3"/>
<path d="M958.926 75.1448C968.922 54.7443 1005.91 53.7242 1025.9 60.8644C1045.89 68.0046 1160.84 153.687 1154.84 163.887C1148.84 174.088 1120.86 168.987 1100.86 163.887C1080.87 158.787 1074.88 124.106 1050.89 117.986C1026.9 111.866 1000.91 123.086 986.914 117.986C972.92 112.886 948.931 95.5454 958.926 75.1448Z" fill="#4393C3"/>
<path d="M1186.83 299.551C1190.82 283.231 1214.81 256.71 1230.81 247.53C1246.8 238.349 1265.79 243.449 1282.78 256.71C1299.78 269.97 1299.78 288.331 1293.78 299.551C1287.78 310.771 1241.8 339.332 1217.81 336.272C1193.82 333.212 1182.83 315.871 1186.83 299.551Z" fill="#4393C3"/>
<path d="M1258.8 230.189C1243.8 230.189 1233.81 221.009 1240.8 216.929C1247.8 212.849 1313.77 221.009 1331.76 216.929C1349.76 212.849 1361.75 184.288 1378.74 184.288C1395.74 184.288 1418.73 176.39 1418.73 190.408C1418.73 204.426 1399.73 247.53 1364.75 256.71C1329.76 265.89 1273.79 230.189 1258.8 230.189Z" fill="#4393C3"/>
<path d="M1316.77 310.771C1301.78 299.551 1311.77 284.251 1325.77 277.11C1339.76 269.97 1345.76 277.11 1364.75 277.11C1383.74 277.11 1397.73 238.349 1418.73 247.53C1439.72 256.71 1443.71 299.551 1418.73 315.871C1393.74 332.192 1331.76 321.992 1316.77 310.771Z" fill="#4393C3"/>
<path d="M1033.89 141.447C1033.89 141.447 994.911 122.066 980.917 141.447C966.923 160.827 989.913 172.048 1007.9 184.288C1025.9 196.528 1075.88 190.408 1082.87 176.128C1089.87 161.847 1033.89 141.447 1033.89 141.447Z" fill="#4393C3"/>
<path d="M1177.83 262.83C1161.84 264.87 1143.85 256.71 1143.85 256.71C1143.85 256.71 1082.87 230.189 1088.87 204.688C1094.87 179.188 1127.85 204.426 1154.84 204.426C1181.83 204.426 1207.82 186.066 1212.82 204.426C1217.81 222.787 1193.82 260.79 1177.83 262.83Z" fill="#4393C3"/>
<path d="M714.034 131.246C692.043 136.347 569.097 139.407 573.095 131.246C577.094 123.086 690.044 109.826 702.039 100.646C714.034 91.4653 722.03 46.584 736.024 60.8644C750.018 75.1448 736.024 126.146 714.034 131.246Z" stroke="white"/>
<path d="M594.086 149.607C586.09 149.607 582.091 156.747 588.089 163.887C594.086 171.027 607.08 184.288 624.073 190.408C641.066 196.528 672.052 202.648 679.049 196.528C686.046 190.408 684.047 175.108 679.049 160.827C674.051 146.547 602.083 149.607 594.086 149.607Z" stroke="white"/>
<path d="M760.013 54.7443C766.011 48.6241 769.009 48.6241 782.004 42.5039C794.998 36.3838 786.002 26.1835 803.994 23.1234C821.986 20.0633 848.975 28.2235 853.972 48.6241C858.97 69.0247 833.981 141.447 815.989 141.447C797.997 141.447 768.01 131.246 760.013 117.986C752.017 104.726 754.016 60.8644 760.013 54.7443Z" stroke="white"/>
<path d="M714.034 163.887C720.031 151.647 724.029 141.447 742.021 141.447C760.013 141.447 799.996 143.487 794.998 163.887C790 184.288 769.009 183.268 768.01 204.688C767.01 226.109 775.007 247.53 760.013 247.53C745.02 247.53 724.029 225.089 714.034 212.849C704.038 200.608 708.036 176.128 714.034 163.887Z" stroke="white"/>
<path d="M870.965 75.1448C882.96 69.0247 926.94 75.1448 936.936 91.4653C946.932 107.786 958.926 132.266 949.93 168.987C940.934 205.708 900.952 216.929 900.952 216.929C900.952 216.929 877.962 228.149 878.961 204.688C879.961 181.228 890.956 188.368 903.95 176.128C916.945 163.887 914.946 149.607 903.95 141.447C892.955 133.286 857.971 136.347 853.972 117.986C849.974 99.6255 858.97 81.265 870.965 75.1448Z" stroke="white"/>
<path d="M803.994 190.408C815.989 176.128 829.37 169.212 848.975 163.887C861.85 160.39 886.958 145.527 882.96 160.827C878.961 176.128 842.977 247.53 842.977 247.53C842.977 247.53 821.986 281.191 803.994 277.11C786.002 273.03 794.998 255.69 794.998 238.349C794.998 221.009 791.999 204.688 803.994 190.408Z" stroke="white"/>
<path d="M958.926 75.1448C968.922 54.7443 1005.91 53.7242 1025.9 60.8644C1045.89 68.0046 1160.84 153.687 1154.84 163.887C1148.84 174.088 1120.86 168.987 1100.86 163.887C1080.87 158.787 1074.88 124.106 1050.89 117.986C1026.9 111.866 1000.91 123.086 986.914 117.986C972.92 112.886 948.931 95.5454 958.926 75.1448Z" stroke="white"/>
<path d="M1186.83 299.551C1190.82 283.231 1214.81 256.71 1230.81 247.53C1246.8 238.349 1265.79 243.449 1282.78 256.71C1299.78 269.97 1299.78 288.331 1293.78 299.551C1287.78 310.771 1241.8 339.332 1217.81 336.272C1193.82 333.212 1182.83 315.871 1186.83 299.551Z" stroke="white"/>
<path d="M1258.8 230.189C1243.8 230.189 1233.81 221.009 1240.8 216.929C1247.8 212.849 1313.77 221.009 1331.76 216.929C1349.76 212.849 1361.75 184.288 1378.74 184.288C1395.74 184.288 1418.73 176.39 1418.73 190.408C1418.73 204.426 1399.73 247.53 1364.75 256.71C1329.76 265.89 1273.79 230.189 1258.8 230.189Z" stroke="white"/>
<path d="M1316.77 310.771C1301.78 299.551 1311.77 284.251 1325.77 277.11C1339.76 269.97 1345.76 277.11 1364.75 277.11C1383.74 277.11 1397.73 238.349 1418.73 247.53C1439.72 256.71 1443.71 299.551 1418.73 315.871C1393.74 332.192 1331.76 321.992 1316.77 310.771Z" stroke="white"/>
<path d="M1033.89 141.447C1033.89 141.447 994.911 122.066 980.917 141.447C966.923 160.827 989.913 172.048 1007.9 184.288C1025.9 196.528 1075.88 190.408 1082.87 176.128C1089.87 161.847 1033.89 141.447 1033.89 141.447Z" stroke="white"/>
<path d="M1177.83 262.83C1161.84 264.87 1143.85 256.71 1143.85 256.71C1143.85 256.71 1082.87 230.189 1088.87 204.688C1094.87 179.188 1127.85 204.426 1154.84 204.426C1181.83 204.426 1207.82 186.066 1212.82 204.426C1217.81 222.787 1193.82 260.79 1177.83 262.83Z" stroke="white"/>
</svg>
